<!-- Generator: Adobe Illustrator 21.0.2, SVG Export Plug-In  -->
<svg version="1.1"
	 xmlns="http://www.w3.org/2000/svg" xmlns:xlink="http://www.w3.org/1999/xlink" xmlns:a="http://ns.adobe.com/AdobeSVGViewerExtensions/3.0/"
	 x="0px" y="0px" width="113.5px" height="25.5px" viewBox="0 0 113.5 25.5" style="enable-background:new 0 0 113.5 25.5;"
	 xml:space="preserve">
    <style type="text/css">
        .st0{fill:url(#SVGID_1_);}
        .st1{fill:#333333;}
        .st2{fill:url(#SVGID_2_);}
    </style>
    <defs>
    </defs>
    <linearGradient id="SVGID_1_" gradientUnits="userSpaceOnUse" x1="24.6313" y1="16.1105" x2="5.525" y2="0.6684">
        <stop  offset="0" style="stop-color:#00A5CE"/>
        <stop  offset="1" style="stop-color:#00FFF0"/>
    </linearGradient>
        <path class="st0" d="M13.3,24.7L0.9,12.2C-0.3,11-0.3,9.1,0.9,8l0,0C2,6.8,4,6.8,5.1,8l10,10c0,0,0.3,0.3,0.6,0l9.2-9.2l0.9-0.9
            c0.6-0.6,0.6-1.5,0-2.1c-0.6-0.6-1.6-0.6-2.2,0l-0.9,0.9l-5.1,5.1c-1.2,1.2-3.1,1.2-4.3,0l0,0l-6-6c-1.2-1.2-1.2-3.1,0-4.3l0,0
            c1.2-1.2,3.1-1.2,4.3,0l3.6,3.7c0,0,0.3,0.2,0.5,0l2.8-2.8c3-3,7.7-3,10.7,0s2.9,7.7,0,10.7L29.1,13L17.5,24.6
            C16.4,25.8,14.4,25.8,13.3,24.7L13.3,24.7"/>
        <g>
            <path class="st1" d="M40.2,9.7c0-0.2,0.2-0.4,0.4-0.4s0.4,0.2,0.4,0.4v10.7h6.7c0.2,0,0.4,0.2,0.4,0.4c0,0.2-0.2,0.4-0.4,0.4h-7.1
                c-0.2,0-0.4-0.2-0.4-0.4V9.7z"/>
            <path class="st1" d="M50.9,20.7l5.1-11c0.1-0.3,0.3-0.4,0.6-0.4h0c0.3,0,0.5,0.2,0.6,0.4l5.1,11c0.1,0.1,0.1,0.2,0.1,0.3
                c0,0.2-0.2,0.4-0.4,0.4c-0.2,0-0.4-0.2-0.4-0.3l-1.4-3.1h-7L51.6,21c-0.1,0.2-0.2,0.3-0.4,0.3c-0.2,0-0.4-0.2-0.4-0.4
                C50.8,20.9,50.8,20.8,50.9,20.7z M59.7,17.1l-3.1-6.9l-3.1,6.9H59.7z"/>
            <path class="st1" d="M67.9,16.6L63.3,10c-0.1-0.1-0.1-0.2-0.1-0.3c0-0.2,0.2-0.4,0.5-0.4c0.2,0,0.3,0.1,0.4,0.3l4.3,6.2l4.3-6.2
                c0.1-0.1,0.2-0.3,0.4-0.3c0.2,0,0.4,0.2,0.4,0.4c0,0.1-0.1,0.2-0.1,0.3l-4.6,6.5v4.4c0,0.2-0.2,0.4-0.4,0.4c-0.2,0-0.4-0.2-0.4-0.4
                V16.6z"/>
            <path class="st1" d="M76.7,10.7c0-0.7,0.6-1.3,1.3-1.3h4.2c1.4,0,2.4,0.4,3.1,1.1c0.5,0.5,0.8,1.2,0.8,2v0c0,1.3-0.7,2.1-1.6,2.6
                c1.4,0.5,2.2,1.3,2.2,2.9v0c0,2.2-1.8,3.3-4.5,3.3H78c-0.7,0-1.3-0.6-1.3-1.3V10.7z M81.7,14.2c1.2,0,1.9-0.4,1.9-1.3v0
                c0-0.8-0.6-1.2-1.7-1.2h-2.6v2.5H81.7z M82.4,19c1.2,0,1.9-0.4,1.9-1.3v0c0-0.8-0.6-1.3-1.9-1.3h-3V19H82.4z"/>
            <path class="st1" d="M89.7,16.2v-5.6c0-0.7,0.6-1.3,1.3-1.3c0.7,0,1.3,0.6,1.3,1.3v5.5c0,1.9,1,2.9,2.6,2.9c1.6,0,2.6-1,2.6-2.9
                v-5.6c0-0.7,0.6-1.3,1.3-1.3s1.3,0.6,1.3,1.3v5.5c0,3.6-2,5.4-5.2,5.4C91.6,21.5,89.7,19.7,89.7,16.2z"/>
            <path class="st1" d="M106.7,16.7l-3.8-5.2c-0.2-0.3-0.3-0.6-0.3-0.9c0-0.7,0.6-1.3,1.3-1.3c0.6,0,1,0.3,1.3,0.8l2.9,4.2L111,10
                c0.3-0.5,0.7-0.8,1.3-0.8c0.8,0,1.3,0.6,1.3,1.3c0,0.4-0.2,0.7-0.3,0.9l-3.8,5.2v3.4c0,0.7-0.6,1.3-1.3,1.3c-0.7,0-1.3-0.6-1.3-1.3
                V16.7z"/>
        </g>
</svg>